<svg width="24" height="23" viewBox="0 0 24 23" fill="none" xmlns="http://www.w3.org/2000/svg">
<path d="M6.855 0C3.08063 0 0 2.90734 0 6.48313C0 7.61336 0.33 8.66094 0.87 9.58813C0.73875 10.2458 0.66 10.9232 0.66 11.615C0.66 17.604 5.79562 22.4538 12.12 22.4538C12.78 22.4538 13.4231 22.398 14.055 22.2956C14.9831 22.743 16.0331 23 17.145 23C20.9194 23 24 20.0945 24 16.5169C24 15.543 23.7506 14.6302 23.34 13.8C23.4956 13.0902 23.595 12.3643 23.595 11.615C23.595 5.62961 18.4463 0.77625 12.12 0.77625C11.5144 0.77625 10.9181 0.83375 10.335 0.92C9.31312 0.346797 8.13 0 6.855 0ZM6.855 0.92C8.01188 0.92 9.0825 1.22727 9.99 1.76813C10.0875 1.82922 10.2037 1.85438 10.32 1.84C10.9069 1.74477 11.5069 1.69625 12.12 1.69625C17.9344 1.69625 22.635 6.13453 22.635 11.615C22.635 12.3463 22.5562 13.0561 22.395 13.7425C22.365 13.8485 22.3762 13.9599 22.425 14.0588C22.8188 14.8009 23.04 15.6274 23.04 16.5169C23.04 19.5913 20.4094 22.08 17.145 22.08C16.1344 22.08 15.1819 21.8392 14.355 21.4188C14.2631 21.3738 14.1581 21.3577 14.055 21.3756C13.4288 21.4852 12.7781 21.5338 12.12 21.5338C6.30562 21.5338 1.62 17.1009 1.62 11.615C1.62 10.9322 1.69125 10.262 1.83 9.61688C1.85437 9.50367 1.83187 9.38508 1.77 9.28625C1.25437 8.45969 0.96 7.51094 0.96 6.48313C0.96 3.41227 3.5925 0.92 6.855 0.92ZM12.045 3.8525C10.7812 3.8525 9.645 4.01602 8.67 4.35563C8.66625 4.35742 8.65875 4.35383 8.655 4.35563C7.67062 4.70062 6.86812 5.22531 6.315 5.90812C5.75625 6.59453 5.46 7.4157 5.46 8.29438C5.46 9.20359 5.73937 10.0212 6.285 10.6663C6.80625 11.2808 7.50375 11.7623 8.355 12.1038C9.165 12.429 10.1644 12.7021 11.325 12.9375C12.1556 13.1028 12.8287 13.2573 13.305 13.3975C13.7269 13.5215 14.0588 13.7066 14.295 13.915C14.4862 14.0839 14.565 14.251 14.565 14.5619C14.565 14.9284 14.4094 15.171 13.95 15.4675C13.4925 15.764 12.8569 15.9419 12.015 15.9419C11.3981 15.9419 10.9237 15.8484 10.62 15.7119C10.2806 15.5609 10.0275 15.3777 9.87 15.18C9.67313 14.9356 9.48375 14.614 9.3 14.2169C9.105 13.7838 8.85187 13.4173 8.52 13.1531C8.1675 12.8728 7.71562 12.7362 7.245 12.7362C6.68813 12.7362 6.16687 12.907 5.775 13.2537C5.38875 13.5988 5.16 14.0767 5.16 14.5763C5.16 15.3004 5.44312 16.0263 5.955 16.7181C6.45937 17.4081 7.13437 17.9634 7.935 18.3713C9.05812 18.9355 10.455 19.205 12.09 19.205C13.4531 19.205 14.67 19.0073 15.705 18.6012C16.7456 18.1934 17.58 17.6094 18.15 16.8475C18.7162 16.0892 19.0031 15.2034 19.005 14.26C19.005 13.482 18.8419 12.7866 18.495 12.2044C18.1594 11.642 17.685 11.1712 17.1 10.81C16.5394 10.465 15.8681 10.1793 15.105 9.9475C14.3681 9.72469 13.5413 9.51266 12.645 9.32938C12.6375 9.32758 12.6375 9.33117 12.63 9.32938C11.94 9.17844 11.4338 9.05984 11.145 8.98438C10.8806 8.9143 10.5994 8.82086 10.335 8.69688C10.1044 8.58727 9.94687 8.45789 9.84 8.3375C9.75937 8.24406 9.735 8.18297 9.735 8.03563C9.735 7.8182 9.82125 7.65109 10.2 7.4175C10.5712 7.1857 11.1094 7.05813 11.835 7.05813C12.6281 7.05813 13.155 7.19828 13.38 7.36C13.6931 7.58281 13.9875 7.92063 14.235 8.36625C14.2406 8.37164 14.2444 8.37523 14.25 8.38062C14.5013 8.78852 14.7319 9.09039 15 9.315C15.3337 9.59172 15.7762 9.70312 16.26 9.70312C16.8188 9.70312 17.3438 9.50727 17.73 9.12813C18.1031 8.76336 18.33 8.29617 18.33 7.80562C18.33 7.33305 18.1838 6.85148 17.925 6.39687C17.6588 5.92969 17.25 5.50563 16.725 5.1175C16.1887 4.72039 15.5269 4.40773 14.76 4.18313C13.9781 3.95312 13.0631 3.8525 12.045 3.8525ZM12.045 4.7725C12.9919 4.7725 13.815 4.87852 14.475 5.07438C15.1537 5.27383 15.7181 5.53797 16.14 5.85063C16.5844 6.17945 16.8975 6.51547 17.085 6.8425C17.2819 7.1875 17.37 7.50914 17.37 7.80562C17.37 8.05719 17.2819 8.25844 17.055 8.48125C16.8412 8.69328 16.5956 8.78312 16.26 8.78312C15.93 8.78312 15.7387 8.71484 15.63 8.625C15.4913 8.51 15.3019 8.27461 15.09 7.935C15.0844 7.92422 15.0806 7.91703 15.075 7.90625C14.7769 7.37977 14.4056 6.94133 13.965 6.62687C13.4531 6.25852 12.735 6.13812 11.835 6.13812C10.9838 6.13812 10.2544 6.29625 9.675 6.65563C9.135 6.98984 8.775 7.47859 8.775 8.03563C8.775 8.36086 8.89125 8.67891 9.105 8.92688C9.315 9.16406 9.58875 9.36172 9.915 9.51625C10.23 9.66539 10.56 9.78938 10.89 9.87563C11.2087 9.95828 11.7281 10.0805 12.435 10.235C13.3125 10.4129 14.115 10.6123 14.82 10.8244C15.5194 11.0382 16.1194 11.297 16.59 11.5863C17.055 11.8738 17.4131 12.2331 17.67 12.6644C17.9156 13.0777 18.045 13.6041 18.045 14.26C18.045 15.0273 17.8237 15.7083 17.37 16.3156C16.9219 16.9158 16.2525 17.3973 15.345 17.7531C14.4544 18.1035 13.3556 18.285 12.09 18.285C10.5675 18.285 9.32625 18.0388 8.385 17.5662C7.70813 17.2213 7.16625 16.7559 6.75 16.1863C6.74437 16.1863 6.74062 16.1863 6.735 16.1863C6.30937 15.6095 6.12 15.0722 6.12 14.5763C6.12 14.3157 6.21562 14.1252 6.435 13.9294C6.64687 13.7425 6.88312 13.6562 7.245 13.6562C7.52812 13.6562 7.72875 13.7155 7.905 13.8575C8.08125 13.9977 8.26312 14.2366 8.415 14.5763C8.42062 14.5816 8.42437 14.5852 8.43 14.5906C8.63625 15.038 8.86312 15.4208 9.12 15.7406C9.39 16.0784 9.76125 16.3444 10.215 16.5456C10.7081 16.7666 11.3081 16.8619 12.015 16.8619C12.99 16.8619 13.8281 16.6696 14.49 16.2437C15.1256 15.8341 15.525 15.2321 15.525 14.5619C15.525 14.0516 15.3169 13.5736 14.94 13.2394C14.5763 12.9177 14.1225 12.677 13.59 12.5206C13.0669 12.3661 12.3675 12.2152 11.52 12.0463C10.4006 11.8198 9.46125 11.5485 8.73 11.2556C8.00062 10.9627 7.44375 10.5602 7.035 10.0769C6.63562 9.6043 6.42 9.03289 6.42 8.29438C6.42 7.60258 6.63187 7.00063 7.065 6.46875C7.07062 6.46875 7.07437 6.46875 7.08 6.46875C7.50375 5.94406 8.12625 5.5182 8.985 5.21812C9.82875 4.92164 10.8619 4.7725 12.045 4.7725Z" fill="#currentColor"/>
</svg>
