<svg width="24" height="24" viewBox="0 0 24 24" fill="none" xmlns="http://www.w3.org/2000/svg">
<path d="M11.9925 1.43347C11.9427 1.43427 11.8934 1.44281 11.8463 1.45878C11.0322 1.4708 10.2321 1.55811 9.47438 1.74753C9.14575 1.82754 8.82095 1.92865 8.49844 2.04659C8.42117 2.0553 8.34718 2.08264 8.28281 2.12628C7.87052 2.27704 7.47039 2.45167 7.09031 2.65315C6.46643 2.97719 5.88207 3.37954 5.33531 3.8269C5.26212 3.85663 5.19739 3.90397 5.14688 3.96472C5.0958 4.00743 5.04472 4.05005 4.995 4.09597C4.36204 4.6586 3.79416 5.29628 3.30656 6.00003C3.16308 6.20633 3.03162 6.42121 2.90531 6.63753C2.85474 6.69444 2.81843 6.76257 2.79938 6.83628C2.24509 7.81696 1.84513 8.8978 1.63406 10.0397C1.60177 10.1073 1.58571 10.1814 1.58719 10.2563C1.55926 10.4122 1.53248 10.5693 1.515 10.7353C1.46526 11.1507 1.44 11.5712 1.44 12C1.44 12.4289 1.46526 12.8494 1.515 13.2647C1.53248 13.4307 1.55926 13.5879 1.58719 13.7438C1.58586 13.8183 1.60191 13.8921 1.63406 13.9594C1.84493 15.1008 2.2437 16.1815 2.7975 17.1619C2.81683 17.2365 2.8538 17.3053 2.90531 17.3625C3.03176 17.5791 3.16291 17.7945 3.30656 18.001C3.79468 18.7054 4.36266 19.3377 4.99313 19.9032C5.04269 19.949 5.09411 19.9909 5.145 20.0335L5.14594 20.0344C5.19676 20.0961 5.26218 20.1441 5.33625 20.1741H5.33719C5.8835 20.6209 6.46704 21.0232 7.09031 21.3469C7.47039 21.5484 7.87052 21.723 8.28281 21.8738C8.3469 21.9173 8.42056 21.9446 8.4975 21.9535C8.82029 22.0716 9.14546 22.1724 9.47438 22.2525C10.2321 22.442 11.0322 22.5293 11.8463 22.5413C11.946 22.575 12.054 22.575 12.1538 22.5413C12.9678 22.5293 13.7679 22.442 14.5256 22.2525C14.8543 22.1725 15.1791 22.0714 15.5016 21.9535C15.5788 21.9448 15.6528 21.9174 15.7172 21.8738C16.1295 21.723 16.5296 21.5484 16.9097 21.3469C17.5336 21.0229 18.1179 20.6205 18.6647 20.1732C18.7379 20.1434 18.8026 20.0961 18.8531 20.0353C18.9047 19.9922 18.9567 19.9496 19.0069 19.9032C19.6373 19.3377 20.2053 18.7054 20.6934 18.001V18C20.8369 17.7937 20.9684 17.5788 21.0947 17.3625C21.1453 17.3056 21.1816 17.2375 21.2006 17.1638C21.7549 16.1831 22.1549 15.1023 22.3659 13.9603C22.3982 13.8928 22.4143 13.8186 22.4128 13.7438C22.4407 13.5879 22.4675 13.4307 22.485 13.2647C22.5347 12.8494 22.56 12.4289 22.56 12C22.56 11.5712 22.5347 11.1507 22.485 10.7353C22.4675 10.5693 22.4407 10.4122 22.4128 10.2563C22.4141 10.1817 22.3981 10.1079 22.3659 10.0407C22.1551 8.89924 21.7563 7.81852 21.2025 6.83815C21.1832 6.7636 21.1462 6.69479 21.0947 6.63753C20.9684 6.42121 20.8369 6.20633 20.6934 6.00003V5.99909C20.2059 5.2956 19.6378 4.65844 19.005 4.09597C18.9559 4.05065 18.9054 4.00877 18.855 3.96659C18.8547 3.96628 18.8544 3.96597 18.8541 3.96565C18.8032 3.90398 18.7378 3.85596 18.6638 3.82597C18.6634 3.82597 18.6631 3.82597 18.6628 3.82597C18.1166 3.37915 17.533 2.97687 16.9097 2.65315C16.5296 2.45167 16.1295 2.27704 15.7172 2.12628C15.6531 2.08279 15.5794 2.05545 15.5025 2.04659C15.1797 1.92851 14.8545 1.82761 14.5256 1.74753C13.7679 1.55811 12.9678 1.4708 12.1538 1.45878C12.1018 1.4412 12.0473 1.43264 11.9925 1.43347ZM8.39531 2.07659C8.392 2.07775 8.38927 2.08011 8.38594 2.08128C8.38445 2.08185 8.38279 2.08164 8.38125 2.08222L8.39531 2.07659ZM15.6047 2.07659L15.6188 2.08222C15.6173 2.08164 15.6156 2.08185 15.6141 2.08128C15.6108 2.08011 15.608 2.07776 15.6047 2.07659ZM11.52 2.45815V4.37722C11.0596 4.40634 10.598 4.43454 10.1634 4.54034C10.1631 4.54034 10.1628 4.54034 10.1625 4.54034C10.0515 4.56756 9.94327 4.60868 9.83344 4.64065L9.17719 2.83972C9.35202 2.78593 9.52016 2.72414 9.70406 2.6794C9.705 2.67909 9.70594 2.67878 9.70688 2.67847C10.2834 2.53432 10.9013 2.48964 11.52 2.45815ZM12.48 2.45815C13.0987 2.48964 13.7166 2.53432 14.2931 2.67847C14.2941 2.67878 14.295 2.67909 14.2959 2.6794C14.4798 2.72414 14.648 2.78593 14.8228 2.83972L14.1666 4.64065C14.0567 4.60868 13.9485 4.56756 13.8375 4.54034C13.8372 4.54034 13.8369 4.54034 13.8366 4.54034C13.402 4.43454 12.9404 4.40634 12.48 4.37722V2.45815ZM8.27813 3.1744L8.93344 4.97722C8.76534 5.05064 8.59409 5.11301 8.43094 5.20128L8.43 5.20222C8.17249 5.3378 7.94275 5.52689 7.69969 5.69159C7.60163 5.70451 7.50995 5.7474 7.43719 5.8144L6.22969 4.37628C6.64863 4.05915 7.07181 3.74364 7.53656 3.50253C7.53782 3.50191 7.53907 3.50128 7.54031 3.50065C7.78033 3.37342 8.03047 3.2786 8.27813 3.1744ZM15.7219 3.1744C15.9695 3.2786 16.2197 3.37342 16.4597 3.50065C16.4609 3.50128 16.4622 3.50191 16.4634 3.50253C16.9282 3.74364 17.3514 4.05915 17.7703 4.37628L16.5628 5.8144C16.4899 5.74774 16.3983 5.70518 16.3003 5.69253C16.0571 5.52771 15.8277 5.33788 15.57 5.20222C15.4065 5.11371 15.235 5.0508 15.0666 4.97722L15.7219 3.1744ZM5.48438 4.98097L6.72282 6.45659C6.3426 6.81912 5.97782 7.20124 5.67656 7.63784C5.65004 7.67594 5.62978 7.71573 5.60438 7.75409L3.94031 6.79315C3.9926 6.71193 4.04044 6.62596 4.095 6.54753C4.095 6.54722 4.095 6.5469 4.095 6.54659C4.49575 5.96819 4.97398 5.45588 5.48438 4.98097ZM18.5156 4.98097C19.026 5.45588 19.5042 5.96819 19.905 6.54659C19.905 6.5469 19.905 6.54722 19.905 6.54753C19.9596 6.62596 20.0074 6.71193 20.0597 6.79315L18.3956 7.75409C18.3702 7.71573 18.35 7.67594 18.3234 7.63784L18.3216 7.63597C18.0207 7.20019 17.6568 6.81852 17.2772 6.45659L18.5156 4.98097ZM11.52 5.33722V7.2244C10.8195 7.29446 10.1647 7.51946 9.585 7.85909L8.46938 6.3244C8.6094 6.23784 8.73127 6.12795 8.87813 6.05065C8.87969 6.04973 8.88126 6.04879 8.88281 6.04784C9.12647 5.91569 9.38786 5.80421 9.65438 5.70472C9.69084 5.69544 9.72608 5.68191 9.75938 5.6644C9.96126 5.59031 10.1688 5.52678 10.3913 5.47222L10.3903 5.47315C10.7522 5.38504 11.1376 5.36479 11.52 5.33722ZM12.48 5.33722C12.8624 5.36479 13.2477 5.38503 13.6097 5.47315L13.6088 5.47222C13.8315 5.52685 14.0394 5.59018 14.2416 5.6644C14.2754 5.68237 14.3113 5.69622 14.3484 5.70565C14.614 5.80491 14.8744 5.91615 15.1172 6.04784C15.1187 6.04879 15.1203 6.04973 15.1219 6.05065C15.2687 6.12795 15.3906 6.23784 15.5306 6.3244L14.415 7.85909C13.8353 7.51946 13.1805 7.29446 12.48 7.2244V5.33722ZM7.67625 6.86534L8.80969 8.42534C8.3012 8.87974 7.88785 9.438 7.60875 10.0697L5.78532 9.47534C5.8935 9.20185 6.01243 8.93589 6.1575 8.6869C6.17975 8.65638 6.19831 8.62334 6.21281 8.58847C6.29408 8.44876 6.37659 8.31354 6.46594 8.18534C6.46625 8.18472 6.46657 8.18409 6.46688 8.18347C6.77566 7.73596 7.13933 7.32739 7.54313 6.96847C7.54375 6.96784 7.54438 6.96722 7.545 6.96659C7.57463 6.93992 7.59155 6.92594 7.6125 6.90847C7.61313 6.90815 7.61375 6.90784 7.61438 6.90753C7.63607 6.8951 7.65676 6.88099 7.67625 6.86534ZM16.3238 6.86534C16.3427 6.88027 16.3628 6.89374 16.3838 6.90565C16.4054 6.92353 16.4238 6.93852 16.455 6.96659C16.4556 6.96722 16.4563 6.96784 16.4569 6.96847C16.8607 7.32739 17.2243 7.73596 17.5331 8.18347C17.5334 8.18409 17.5338 8.18472 17.5341 8.18534C17.6236 8.31375 17.7058 8.44944 17.7872 8.5894C17.8019 8.62497 17.8207 8.65865 17.8434 8.68972C17.8438 8.69003 17.8441 8.69034 17.8444 8.69065C17.9877 8.93696 18.1067 9.20184 18.2175 9.4744L16.3913 10.0697C16.1122 9.438 15.6988 8.87974 15.1903 8.42534L16.3238 6.86534ZM3.48 7.63503L5.14406 8.59503C5.03309 8.81893 4.91002 9.03778 4.82344 9.2719V9.27284C4.7983 9.33718 4.7897 9.40925 4.76625 9.4744C4.72736 9.5241 4.69864 9.58098 4.68175 9.64179C4.66486 9.7026 4.66012 9.76614 4.66781 9.82878C4.63054 9.95108 4.59455 10.0739 4.56375 10.1991L2.67 9.86534C2.84692 9.08089 3.11971 8.33395 3.48 7.63503ZM20.52 7.63503C20.8803 8.33395 21.1531 9.08089 21.33 9.86534L19.4381 10.1991C19.4073 10.0713 19.3708 9.94555 19.3331 9.82034C19.3457 9.69974 19.3123 9.57883 19.2394 9.4819C19.2151 9.41373 19.2076 9.33932 19.1813 9.2719C19.0921 9.03869 18.9694 8.81838 18.8578 8.59409L20.52 7.63503ZM11.9438 8.16284C11.9824 8.16755 12.0214 8.16755 12.06 8.16284C12.8405 8.17482 13.5637 8.41594 14.1638 8.82472C14.2113 8.88139 14.2713 8.92631 14.3391 8.95597C14.9185 9.40122 15.3644 10.0075 15.6141 10.71C15.6204 10.7862 15.6448 10.8599 15.6853 10.9247C15.7843 11.2661 15.84 11.626 15.84 12C15.84 12.3734 15.7839 12.7326 15.6853 13.0735C15.6445 13.1389 15.6201 13.2132 15.6141 13.29C15.3647 13.9917 14.9193 14.5971 14.3409 15.0422C14.2723 15.0722 14.2116 15.1178 14.1638 15.1753C13.5628 15.5848 12.8382 15.826 12.0563 15.8372C12.0176 15.8325 11.9786 15.8325 11.94 15.8372C10.2937 15.8119 8.90819 14.7595 8.38594 13.29C8.37963 13.2138 8.3552 13.1402 8.31469 13.0753C8.21575 12.734 8.16 12.374 8.16 12C8.16 11.6267 8.21608 11.2675 8.31469 10.9266C8.35549 10.8612 8.37992 10.7869 8.38594 10.71C8.90859 9.23939 10.2958 8.18656 11.9438 8.16284ZM18.5006 10.3913C18.5332 10.5232 18.5852 10.6473 18.6094 10.7832C18.612 10.8204 18.6189 10.8572 18.63 10.8928C18.6449 10.9935 18.66 11.0916 18.6703 11.1844C18.6703 11.1857 18.6703 11.1869 18.6703 11.1882C18.7018 11.4541 18.72 11.7282 18.72 12C18.72 12.2718 18.7019 12.5459 18.6703 12.8119C18.6703 12.8132 18.6703 12.8144 18.6703 12.8157C18.6599 12.909 18.645 13.0077 18.63 13.1091C18.6191 13.1438 18.6122 13.1797 18.6094 13.216C18.5852 13.3521 18.5332 13.4766 18.5006 13.6088L16.6884 13.0191C16.76 12.6902 16.8 12.3499 16.8 12C16.8 11.6501 16.76 11.3099 16.6884 10.981L18.5006 10.3913ZM5.50125 10.3922L7.31156 10.981C7.24001 11.3099 7.2 11.6501 7.2 12C7.2 12.3499 7.24001 12.6902 7.31156 13.0191L5.50125 13.6078C5.46811 13.4761 5.4147 13.3508 5.39063 13.216C5.38797 13.179 5.38105 13.1426 5.37 13.1072C5.35509 13.0065 5.34 12.9085 5.32969 12.8157C5.32969 12.8144 5.32969 12.8132 5.32969 12.8119C5.29813 12.5459 5.28 12.2718 5.28 12C5.28 11.7282 5.29813 11.4542 5.32969 11.1882C5.32969 11.1869 5.32969 11.1857 5.32969 11.1844C5.34007 11.091 5.35498 10.9924 5.37 10.891C5.38084 10.8565 5.38776 10.821 5.39063 10.785C5.41473 10.6498 5.46803 10.5242 5.50125 10.3922ZM2.47406 10.8057L4.3725 11.1403C4.34141 11.4208 4.32 11.7085 4.32 12C4.32 12.2916 4.34141 12.5792 4.3725 12.8597L2.47406 13.1944C2.47296 13.1845 2.47042 13.1743 2.46938 13.1644C2.46908 13.1619 2.46877 13.1594 2.46844 13.1569C2.42277 12.7778 2.4 12.3942 2.4 12C2.4 11.6058 2.42277 11.2222 2.46844 10.8432C2.46877 10.8407 2.46908 10.8382 2.46938 10.8357C2.47042 10.8257 2.47295 10.8156 2.47406 10.8057ZM21.5259 10.8057C21.527 10.8156 21.5296 10.8257 21.5306 10.8357C21.5309 10.8382 21.5312 10.8407 21.5316 10.8432C21.5772 11.2222 21.6 11.6058 21.6 12C21.6 12.3942 21.5772 12.7778 21.5316 13.1569C21.5312 13.1594 21.5309 13.1619 21.5306 13.1644C21.5296 13.1743 21.527 13.1845 21.5259 13.1944L19.6275 12.8597C19.6586 12.5792 19.68 12.2916 19.68 12C19.68 11.7085 19.6586 11.4208 19.6275 11.1403L21.5259 10.8057ZM4.56375 13.801C4.59462 13.9265 4.63044 14.0496 4.66781 14.1722C4.65254 14.2984 4.68794 14.4255 4.76625 14.5257C4.7897 14.5908 4.7983 14.6629 4.82344 14.7272V14.7282C4.91002 14.9623 5.03309 15.1811 5.14406 15.405L3.48 16.365C3.11971 15.6661 2.84692 14.9192 2.67 14.1347L4.56375 13.801ZM19.4381 13.801L21.33 14.1347C21.1531 14.9192 20.8803 15.6661 20.52 16.365L18.8578 15.406C18.9694 15.1817 19.0921 14.9614 19.1813 14.7282C19.2077 14.6605 19.215 14.5857 19.2394 14.5172C19.3125 14.42 19.346 14.2988 19.3331 14.1778C19.3706 14.0532 19.4075 13.9282 19.4381 13.801ZM7.60875 13.9303C7.88785 14.5621 8.3012 15.1203 8.80969 15.5747L7.67625 17.1347C7.65729 17.1198 7.63724 17.1063 7.61625 17.0944C7.59465 17.0765 7.57619 17.0615 7.545 17.0335C7.54438 17.0328 7.54375 17.0322 7.54313 17.0316C7.13933 16.6727 6.77566 16.2641 6.46688 15.8166C6.46657 15.816 6.46625 15.8153 6.46594 15.8147C6.37644 15.6863 6.29421 15.5506 6.21281 15.4107C6.19815 15.3751 6.17927 15.3414 6.15656 15.3103C6.15657 15.31 6.15657 15.3097 6.15656 15.3094C6.01229 15.0614 5.89303 14.797 5.78532 14.5247L7.60875 13.9303ZM16.3913 13.9303L18.2175 14.5257C18.1063 14.7993 17.9865 15.0651 17.8425 15.3122C17.8202 15.343 17.8016 15.3764 17.7872 15.4116C17.7059 15.5513 17.6234 15.6865 17.5341 15.8147C17.5338 15.8153 17.5334 15.816 17.5331 15.8166C17.2243 16.2641 16.8607 16.6727 16.4569 17.0316C16.4563 17.0322 16.4556 17.0328 16.455 17.0335C16.4254 17.0601 16.4085 17.0741 16.3875 17.0916C16.387 17.092 16.3861 17.0921 16.3856 17.0925C16.3639 17.105 16.3432 17.1191 16.3238 17.1347L15.1903 15.5747C15.6988 15.1203 16.1122 14.5621 16.3913 13.9303ZM9.585 16.141C10.1647 16.4806 10.8195 16.7056 11.52 16.7757V18.6628C11.1376 18.6353 10.7523 18.615 10.3903 18.5269L10.3913 18.5278C10.1685 18.4732 9.96058 18.4099 9.75844 18.3357C9.72459 18.3177 9.68871 18.3038 9.65156 18.2944C9.38601 18.1951 9.12562 18.0839 8.88281 17.9522C8.88126 17.9513 8.87969 17.9503 8.87813 17.9494C8.73127 17.8721 8.6094 17.7622 8.46938 17.6757L9.585 16.141ZM14.415 16.141L15.5306 17.6757C15.3906 17.7622 15.2687 17.8721 15.1219 17.9494C15.1203 17.9503 15.1187 17.9513 15.1172 17.9522C14.8735 18.0844 14.6121 18.1958 14.3456 18.2953C14.3092 18.3046 14.2739 18.3181 14.2406 18.3357C14.0387 18.4097 13.8312 18.4733 13.6088 18.5278L13.6097 18.5269C13.2478 18.615 12.8624 18.6353 12.48 18.6628V16.7757C13.1805 16.7056 13.8353 16.4806 14.415 16.141ZM5.60438 16.246C5.63026 16.2851 5.65139 16.3253 5.67844 16.3641C5.97934 16.7998 6.34324 17.1815 6.72282 17.5435L5.48438 19.0191C4.97282 18.5403 4.49487 18.0306 4.095 17.4535C4.095 17.4532 4.095 17.4528 4.095 17.4525C4.04044 17.3741 3.9926 17.2881 3.94031 17.2069L5.60438 16.246ZM18.3956 16.246L20.0597 17.2069C20.0074 17.2881 19.9596 17.3741 19.905 17.4525C19.905 17.4528 19.905 17.4532 19.905 17.4535C19.5051 18.0306 19.0272 18.5403 18.5156 19.0191L17.2772 17.5435C17.6568 17.1815 18.0207 16.7998 18.3216 16.3641L18.3234 16.3622C18.35 16.3241 18.3702 16.2843 18.3956 16.246ZM7.43719 18.1857C7.50995 18.2527 7.60163 18.2956 7.69969 18.3085C7.94275 18.4732 8.17249 18.6623 8.43 18.7978L8.43094 18.7988C8.59409 18.887 8.76534 18.9494 8.93344 19.0228L8.27813 20.8257C8.03047 20.7215 7.78033 20.6266 7.54031 20.4994C7.53907 20.4988 7.53782 20.4981 7.53656 20.4975C7.07178 20.2564 6.64863 19.9409 6.22969 19.6238L7.43719 18.1857ZM16.5628 18.1866L17.7703 19.6238C17.3514 19.9409 16.9282 20.2564 16.4634 20.4975C16.4622 20.4981 16.4609 20.4988 16.4597 20.4994C16.2197 20.6266 15.9695 20.7215 15.7219 20.8257L15.0666 19.0228C15.2347 18.9494 15.4059 18.887 15.5691 18.7988L15.57 18.7978C15.8275 18.6623 16.0573 18.4732 16.3003 18.3085C16.3983 18.2958 16.4899 18.2533 16.5628 18.1866ZM9.83344 19.3594C9.94327 19.3914 10.0515 19.4325 10.1625 19.4597C10.1628 19.4597 10.1631 19.4597 10.1634 19.4597C10.598 19.5655 11.0596 19.5937 11.52 19.6228V21.5419C10.9013 21.5104 10.2834 21.4657 9.70688 21.3216C9.70594 21.3213 9.705 21.321 9.70406 21.3207C9.52016 21.2759 9.35202 21.2141 9.17719 21.1603L9.83344 19.3594ZM14.1666 19.3594L14.8228 21.1603C14.648 21.2141 14.4798 21.2759 14.2959 21.3207C14.295 21.321 14.2941 21.3213 14.2931 21.3216C13.7166 21.4657 13.0987 21.5104 12.48 21.5419V19.6228C12.9404 19.5937 13.402 19.5655 13.8366 19.4597C13.8369 19.4597 13.8372 19.4597 13.8375 19.4597C13.9485 19.4325 14.0567 19.3914 14.1666 19.3594ZM8.38125 21.9178C8.38274 21.9184 8.3844 21.9182 8.38594 21.9188C8.38925 21.9199 8.39198 21.9223 8.39531 21.9235L8.38125 21.9178ZM15.6188 21.9178L15.6047 21.9235C15.608 21.9223 15.6107 21.92 15.6141 21.9188C15.6156 21.9183 15.6173 21.9184 15.6188 21.9178Z" fill="#currentColor"/>
</svg>
