<svg width="24" height="24" viewBox="0 0 24 24" fill="none" xmlns="http://www.w3.org/2000/svg">
<path d="M12 0.960022C5.90845 0.960022 0.959991 5.90848 0.959991 12C0.959991 18.0916 5.90845 23.04 12 23.04C18.0915 23.04 23.04 18.0916 23.04 12C23.04 5.90848 18.0915 0.960022 12 0.960022ZM12 1.92002C17.5727 1.92002 22.08 6.42731 22.08 12C22.08 17.5727 17.5727 22.08 12 22.08C10.9806 22.08 9.99729 21.9275 9.0703 21.6469C9.48322 20.9565 10.0163 19.9697 10.2281 19.155C10.3539 18.672 10.8712 16.7016 10.8712 16.7016C11.2074 17.3434 12.1897 17.8866 13.2356 17.8866C16.3479 17.8866 18.5916 15.0243 18.5916 11.4675C18.5916 8.05756 15.809 5.5069 12.2287 5.5069C7.77447 5.5069 5.4103 8.49642 5.4103 11.7516C5.4103 13.2654 6.21547 15.1499 7.50468 15.75C7.69996 15.8409 7.80483 15.8015 7.84968 15.6122C7.88421 15.4685 8.05836 14.7681 8.13655 14.4422C8.16156 14.3382 8.14945 14.2484 8.0653 14.146C7.63861 13.6284 7.29655 12.6777 7.29655 11.791C7.29655 9.5146 9.01989 7.31158 11.9559 7.31158C14.4911 7.31158 16.2666 9.0398 16.2666 11.5106C16.2666 14.3022 14.857 16.2366 13.0228 16.2366C12.0099 16.2366 11.2514 15.3986 11.4947 14.371C11.7864 13.1445 12.3497 11.821 12.3497 10.935C12.3497 10.1428 11.9245 9.4819 11.0437 9.4819C10.0082 9.4819 9.17624 10.5526 9.17624 11.9878C9.17624 12.9012 9.48562 13.5197 9.48562 13.5197C9.48562 13.5197 8.46265 17.8447 8.2753 18.6497C8.08755 19.4541 8.13784 20.5375 8.2153 21.3441C4.52214 19.8492 1.91999 16.2333 1.91999 12C1.91999 6.42731 6.42728 1.92002 12 1.92002Z" fill="currentColor"/>
</svg>
